<?xml version="1.0"?>
<svg xmlns="http://www.w3.org/2000/svg" xmlns:lc="https://librecad.org" xmlns:xlink="http://www.w3.org/1999/xlink" width="200mm" height="180mm" viewBox="0 0 200 180">
    <g lc:layername="0" lc:is_locked="false" lc:is_construction="false" fill="none" stroke="black" stroke-width="1">
        <line x1="100" y1="20" x2="120" y2="0"/>
        <line x1="120" y1="0" x2="140" y2="0"/>
        <line x1="140" y1="0" x2="160" y2="10"/>
        <line x1="160" y1="10" x2="180" y2="10"/>
        <line x1="180" y1="10" x2="200" y2="20"/>
        <line x1="200" y1="20" x2="200" y2="40"/>
        <line x1="200" y1="40" x2="180" y2="60"/>
        <line x1="180" y1="60" x2="140" y2="80"/>
        <line x1="140" y1="80" x2="110" y2="100"/>
        <line x1="100" y1="20" x2="80" y2="0"/>
        <line x1="80" y1="0" x2="60" y2="0"/>
        <line x1="60" y1="0" x2="40" y2="10"/>
        <line x1="40" y1="10" x2="20" y2="10"/>
        <line x1="20" y1="10" x2="0" y2="20"/>
        <line x1="0" y1="20" x2="0" y2="40"/>
        <line x1="0" y1="40" x2="20" y2="60"/>
        <line x1="20" y1="60" x2="60" y2="80"/>
        <line x1="60" y1="80" x2="90" y2="100"/>
        <line x1="110" y1="100" x2="105" y2="120"/>
        <line x1="105" y1="120" x2="105" y2="180"/>
        <line x1="105" y1="180" x2="95" y2="180"/>
        <line x1="95" y1="180" x2="95" y2="120"/>
        <line x1="95" y1="120" x2="90" y2="100"/>
    </g>
</svg>
